<?xml version="1.0" encoding="utf-8"?>
<!-- Generator: Adobe Illustrator 15.0.0, SVG Export Plug-In . SVG Version: 6.00 Build 0)  -->
<!DOCTYPE svg PUBLIC "-//W3C//DTD SVG 1.1//EN" "http://www.w3.org/Graphics/SVG/1.1/DTD/svg11.dtd">
<!-- <svg version="1.1" id="Layer_1" xmlns="http://www.w3.org/2000/svg" xmlns:xlink="http://www.w3.org/1999/xlink" x="0px" y="0px"
	 width="31px" height="36px" viewBox="0 0 31 36" enable-background="new 0 0 31 36" xml:space="preserve">
<path fill="#FFFFFF" d="M11,21h7.451c5.247,0,9.5-4.253,9.5-9.5S23.698,2,18.451,2H11H7.379H6v14H2v5h4v3H2v5h4v4h5
	v-4h15v-5H11V21z M11,7h7.451V6.97c2.501,0,4.529,2.028,4.529,4.53s-2.028,4.53-4.529,4.53V16H11V7z"/>
</svg> -->

<svg xmlns="http://www.w3.org/2000/svg" width="31" height="36"><defs><filter id="a"><feGaussianBlur in="SourceAlpha" stdDeviation="1"/><feOffset dx="1" dy="1" result="offsetblur"/><feFlood flood-color="rgba(0,0,0,0.5)"/><feComposite in2="offsetblur" operator="in"/><feMerge><feMergeNode/><feMergeNode in="SourceGraphic"/></feMerge></filter></defs><path filter="url(#a)" fill="#FFF" d="M11 21h7.5a9.5 9.5 0 1 0 0-19H6v14H2v5h4v3H2v5h4v4h5v-4h15v-5H11v-3zm0-14h7.5a4.5 4.5 0 0 1 0 9H11V7z"/></svg>
